<?xml version="1.0" encoding="utf-8"?>
<!-- Generator: Adobe Illustrator 18.0.0, SVG Export Plug-In . SVG Version: 6.00 Build 0)  -->
<!DOCTYPE svg PUBLIC "-//W3C//DTD SVG 1.1//EN" "http://www.w3.org/Graphics/SVG/1.1/DTD/svg11.dtd">
<svg version="1.1" id="Calque_1" xmlns="http://www.w3.org/2000/svg" xmlns:xlink="http://www.w3.org/1999/xlink" x="0px" y="0px" width="130" height="134"
	 viewBox="0 0 137.8 134.1" enable-background="new 0 0 137.8 134.1" xml:space="preserve">
<g id="bouteilles_tapis">
	<g>
		<path fill="#A2CC80" d="M20.9,0.5c0,0-5.8-0.7-6,3.9c-0.2,4.7,0.7,26.5-3.4,36.6C7.5,51.1,2.8,69.4,2.8,83.2
			c0,13.8-0.7,44.3,2.4,47.4c3.2,3.2,15.7,3,16.2,3"/>
		<path fill="#67953D" d="M21,134.1c-3.5,0-13.2-0.3-16-3.1c-2.6-2.6-2.7-20.8-2.6-40.8c0-2.5,0-4.9,0-6.9c0-13.5,4.5-31.9,8.8-42.4
			c3.3-8.2,3.3-24.6,3.3-32.5c0-1.8,0-3.2,0-4C14.6,3,15.1,2,15.9,1.2C17.8-0.3,20.8,0,21,0l-0.1,0.8c0,0-2.8-0.3-4.4,1
			c-0.7,0.6-1.1,1.4-1.1,2.5c0,0.8,0,2.2,0,4c0,7.9,0,24.4-3.4,32.8C7.7,51.6,3.2,69.8,3.2,83.2c0,2,0,4.4,0,6.9
			c-0.1,14.1-0.3,37.6,2.3,40.2c2.1,2.1,9.2,2.9,15.4,2.9c0.2,0,0.3,0,0.5,0l0.1,0v0.8h-0.1C21.3,134.1,21.1,134.1,21,134.1z"/>
	</g>
	<g>
		<path fill="#A2CC80" d="M20.8,0.5c0,0,5.8-0.7,6,3.9C27,9.1,26.1,30.9,30.2,41C34.3,51.1,39,69.4,39,83.2
			c0,13.8,0.7,44.3-2.4,47.4c-3.2,3.2-15.7,3-16.2,3"/>
		<path fill="#67953D" d="M20.8,134.1c-0.2,0-0.3,0-0.4,0h-0.1v-0.8l0.1,0c6.2,0,13.7-0.7,15.9-2.9c2.6-2.6,2.4-26.1,2.3-40.2
			c0-2.5,0-4.9,0-6.9c0-13.4-4.5-31.6-8.7-42.1c-3.4-8.4-3.4-24.9-3.4-32.8c0-1.8,0-3.1,0-4c0-1.1-0.4-1.9-1.1-2.5
			c-1.6-1.3-4.4-1-4.4-1L20.8,0c0.1,0,3.2-0.4,5,1.2C26.7,2,27.2,3,27.2,4.4c0,0.8,0,2.2,0,4c0,7.9,0,24.3,3.3,32.5
			c4.3,10.5,8.8,28.9,8.8,42.4c0,2,0,4.4,0,6.9c0.1,20,0,38.2-2.6,40.8C34,133.8,24.3,134.1,20.8,134.1z"/>
	</g>
	<g>
		<defs>
			<rect id="SVGID_1_" y="51.4" width="39.5" height="80.6"/>
		</defs>
		<clipPath id="SVGID_2_">
			<use xlink:href="#SVGID_1_"  overflow="visible"/>
		</clipPath>
		<g clip-path="url(#SVGID_2_)">
			<path fill="#F7F6D5" d="M21.2,12c0,0-4.9-0.7-5.1,3.5C16,19.6,16.8,39.1,13.2,48c-3.5,9-7.5,25.2-7.5,37.5
				c0,12.3-0.6,39.3,2.1,42.1c2.7,2.8,13.4,2.7,13.9,2.7"/>
			<path fill="#F7F6D5" d="M21.2,12c0,0,4.9-0.7,5.1,3.5c0.2,4.1-0.6,23.6,2.9,32.5c3.5,9,7.5,25.2,7.5,37.5
				c0,12.3,0.6,39.3-2.1,42.1c-2.7,2.8-13.4,2.7-13.9,2.7"/>
		</g>
	</g>
	<g>
		<path fill="#FCF1E5" d="M70.1,0.5c0,0-5.8-0.7-6,3.9c-0.2,4.7,0.7,26.5-3.4,36.6C56.6,51.1,52,69.4,52,83.2
			c0,13.8-0.7,44.3,2.4,47.4c3.2,3.2,15.7,3,16.2,3"/>
		<path fill="#FBC796" d="M70.1,134.1c-3.5,0-13.2-0.3-16-3.1c-2.6-2.6-2.7-20.8-2.6-40.8c0-2.5,0-4.9,0-6.9
			c0-13.5,4.5-31.9,8.8-42.4c3.3-8.2,3.3-24.6,3.3-32.5c0-1.8,0-3.2,0-4C63.7,3,64.2,2,65.1,1.2C67-0.3,70,0,70.1,0L70,0.9
			c0,0-2.8-0.3-4.4,1c-0.7,0.6-1.1,1.4-1.1,2.5c0,0.8,0,2.2,0,4c0,7.9,0,24.4-3.4,32.8c-4.2,10.4-8.7,28.7-8.7,42.1c0,2,0,4.4,0,6.9
			c-0.1,14.1-0.3,37.6,2.3,40.2c2.1,2.1,9.2,2.9,15.4,2.9c0.2,0,0.3,0,0.5,0l0.1,0v0.8h-0.1C70.4,134.1,70.3,134.1,70.1,134.1z"/>
	</g>
	<g>
		<path fill="#FCF1E5" d="M70,0.5c0,0,5.8-0.7,6,3.9c0.2,4.7-0.7,26.5,3.4,36.6c4.1,10.1,8.8,28.4,8.8,42.2
			c0,13.8,0.7,44.3-2.4,47.4c-3.2,3.2-15.7,3-16.2,3"/>
		<path fill="#FBC796" d="M70,134.1c-0.2,0-0.3,0-0.4,0h-0.1v-0.8l0.1,0c6.2,0,13.7-0.7,15.9-2.9c2.6-2.6,2.4-26.1,2.3-40.2
			c0-2.5,0-4.9,0-6.9c0-13.4-4.5-31.6-8.7-42.1c-3.4-8.4-3.4-24.9-3.4-32.8c0-1.8,0-3.1,0-4c0-1.1-0.4-1.9-1.1-2.5
			c-1.6-1.3-4.4-1-4.4-1L70,0c0.1,0,3.2-0.4,5,1.2C75.9,2,76.3,3,76.4,4.4c0,0.8,0,2.2,0,4c0,7.9,0,24.3,3.3,32.5
			c4.3,10.5,8.8,28.9,8.8,42.4c0,2,0,4.4,0,6.9c0.1,20,0,38.2-2.6,40.8C83.1,133.8,73.5,134.1,70,134.1z"/>
	</g>
	<g>
		<defs>
			<rect id="SVGID_3_" x="49.2" y="51.4" width="39.5" height="80.6"/>
		</defs>
		<clipPath id="SVGID_4_">
			<use xlink:href="#SVGID_3_"  overflow="visible"/>
		</clipPath>
		<g clip-path="url(#SVGID_4_)">
			<path fill="#FCCF9E" d="M70.4,12c0,0-4.9-0.7-5.1,3.5c-0.2,4.1,0.6,23.6-2.9,32.5c-3.5,9-7.5,25.2-7.5,37.5
				c0,12.3-0.6,39.3,2.1,42.1c2.7,2.8,13.4,2.7,13.9,2.7"/>
			<path fill="#FCCF9E" d="M70.3,12c0,0,4.9-0.7,5.1,3.5c0.2,4.1-0.6,23.6,2.9,32.5c3.5,9,7.5,25.2,7.5,37.5
				c0,12.3,0.6,39.3-2.1,42.1c-2.7,2.8-13.4,2.7-13.9,2.7"/>
		</g>
	</g>
	<g>
		<rect x="63.7" y="4.6" fill="#F7BFCD" width="12.7" height="20.4"/>
		<path fill="#F09CC2" d="M76.7,25.2H63.5V4.3h13.3V25.2z M64,24.7h12.1V4.9H64V24.7z"/>
	</g>
	<rect x="14.1" y="4.6" fill="#D5CF83" width="13.5" height="20.4"/>
	<g>
		<path fill="#A2CC80" d="M119.2,0.5c0,0-5.8-0.7-6,3.9c-0.2,4.7,0.7,26.5-3.4,36.6c-4.1,10.1-8.8,28.4-8.8,42.2
			c0,13.8-0.7,44.3,2.4,47.4c3.2,3.2,15.7,3,16.2,3"/>
		<path fill="#7CAB4A" d="M119.3,134.1c-3.5,0-13.2-0.3-16-3.1c-2.6-2.6-2.7-20.8-2.6-40.8c0-2.5,0-4.9,0-6.9
			c0-13.5,4.5-31.9,8.8-42.4c3.3-8.2,3.3-24.6,3.3-32.5c0-1.8,0-3.2,0-4c0.1-1.3,0.5-2.4,1.4-3.1c1.9-1.6,4.9-1.2,5-1.2l-0.1,0.8
			c0,0-2.8-0.3-4.4,1c-0.7,0.6-1.1,1.4-1.1,2.5c0,0.8,0,2.2,0,4c0,7.9,0,24.4-3.4,32.8c-4.2,10.4-8.7,28.7-8.7,42.1c0,2,0,4.4,0,6.9
			c-0.1,14.1-0.3,37.6,2.3,40.2c2.2,2.2,9.6,2.9,15.9,2.9l0.1,0v0.8h-0.1C119.6,134.1,119.4,134.1,119.3,134.1z"/>
	</g>
	<g>
		<path fill="#A2CC80" d="M119.2,0.5c0,0,5.8-0.7,6,3.9c0.2,4.7-0.7,26.5,3.4,36.6c4.1,10.1,8.8,28.4,8.8,42.2
			c0,13.8,0.7,44.3-2.4,47.4c-3.2,3.2-15.7,3-16.2,3"/>
		<path fill="#7CAB4A" d="M119.1,134.1c-0.2,0-0.3,0-0.4,0h-0.1v-0.8l0.1,0c6.2,0,13.7-0.7,15.9-2.9c2.6-2.6,2.4-26.1,2.3-40.2
			c0-2.5,0-4.9,0-6.9c0-13.4-4.5-31.6-8.7-42.1c-3.4-8.4-3.4-24.9-3.4-32.8c0-1.8,0-3.1,0-4c0-1.1-0.4-1.9-1.1-2.5
			c-1.6-1.3-4.4-1-4.4-1L119.1,0c0.1,0,3.2-0.4,5,1.2c0.9,0.7,1.4,1.8,1.4,3.1c0,0.8,0,2.2,0,4c0,7.9,0,24.3,3.3,32.5
			c4.3,10.5,8.8,28.9,8.8,42.4c0,2,0,4.4,0,6.9c0.1,20,0,38.2-2.6,40.8C132.3,133.8,122.7,134.1,119.1,134.1z"/>
	</g>
	<g>
		<defs>
			<rect id="SVGID_5_" x="98.3" y="51.4" width="39.5" height="80.6"/>
		</defs>
		<clipPath id="SVGID_6_">
			<use xlink:href="#SVGID_5_"  overflow="visible"/>
		</clipPath>
		<g clip-path="url(#SVGID_6_)">
			<path fill="#B92D1D" d="M119.6,12c0,0-4.9-0.7-5.1,3.5c-0.2,4.1,0.6,23.6-2.9,32.5c-3.5,9-7.5,25.2-7.5,37.5
				c0,12.3-0.6,39.3,2.1,42.1c2.7,2.8,13.4,2.7,13.9,2.7"/>
			<path fill="#B92D1D" d="M119.5,12c0,0,4.9-0.7,5.1,3.5c0.2,4.1-0.6,23.6,2.9,32.5c3.5,9,7.5,25.2,7.5,37.5
				c0,12.3,0.6,39.3-2.1,42.1c-2.7,2.8-13.4,2.7-13.9,2.7"/>
		</g>
	</g>
	<g>
		<rect x="112.6" y="4.5" fill="#7D2013" width="13.4" height="20.4"/>
		<path fill="#5D1F10" d="M126.3,25.2h-14v-21h14V25.2z M112.9,24.7h12.8V4.8h-12.8V24.7z"/>
	</g>
	<path fill="#FFFFFF" d="M114.9,37.5c0,0-11.8,26.1-7.8,38.1C113.5,69.5,107,74.8,114.9,37.5z"/>
	<path fill="#FFFFFF" d="M65,37.5c0,0-11.8,26.1-7.8,38.1C63.6,69.5,57.2,74.8,65,37.5z"/>
	<path fill="#FFFFFF" d="M15.1,37.5c0,0-11.8,26.1-7.8,38.1C13.7,69.5,7.3,74.8,15.1,37.5z"/>
	<g>
		<rect x="10.6" y="79.8" fill="#FDFDFD" width="21" height="29.4"/>
		<path fill="#DFDCB9" d="M32.1,109.7H10.2V79.4h21.9V109.7z M11.1,108.8h20.2V80.3H11.1V108.8z"/>
	</g>
	<g>
		<rect x="59.7" y="79.8" fill="#FCF1E5" width="21" height="29.4"/>
		<path fill="#FBC796" d="M81.1,109.7H59.3V79.4h21.9V109.7z M60.1,108.8h20.2V80.3H60.1V108.8z"/>
	</g>
	<g>
		<rect x="108.7" y="79.8" fill="#FDFDFD" width="21" height="29.4"/>
		<path fill="#641815" d="M130.1,109.7h-21.9V79.4h21.9V109.7z M109.1,108.8h20.2V80.3h-20.2V108.8z"/>
	</g>
	<g>
		<path fill="#A2CC80" d="M29.3,7c0,1.3-0.8,2.4-1.7,2.4H14c-0.9,0-1.7-1.1-1.7-2.4l0,0c0-1.3,0.8-2.4,1.7-2.4h13.6
			C28.6,4.6,29.3,5.7,29.3,7L29.3,7z"/>
		<path fill="#67953D" d="M27.6,9.7H14c-1.1,0-2-1.2-2-2.7c0-1.5,0.9-2.7,2-2.7h13.6c1.1,0,2,1.2,2,2.7C29.6,8.5,28.7,9.7,27.6,9.7z
			 M14,4.9c-0.8,0-1.4,1-1.4,2.1c0,1.2,0.6,2.1,1.4,2.1h13.6c0.8,0,1.4-1,1.4-2.1c0-1.2-0.6-2.1-1.4-2.1H14z"/>
	</g>
	<g>
		<path fill="#F7BFCD" d="M78.5,7c0,1.3-0.8,2.4-1.7,2.4H63.2c-0.9,0-1.7-1.1-1.7-2.4l0,0c0-1.3,0.8-2.4,1.7-2.4h13.6
			C77.8,4.6,78.5,5.7,78.5,7L78.5,7z"/>
		<path fill="#F09CC2" d="M76.9,9.7H63.2c-1.1,0-2-1.2-2-2.7c0-1.5,0.9-2.7,2-2.7h13.6c1.1,0,2,1.2,2,2.7
			C78.8,8.5,77.9,9.7,76.9,9.7z M63.2,4.9c-0.8,0-1.4,1-1.4,2.1c0,1.2,0.6,2.1,1.4,2.1h13.6c0.8,0,1.4-1,1.4-2.1
			c0-1.2-0.6-2.1-1.4-2.1H63.2z"/>
	</g>
	<g>
		<path fill="#A2CC80" d="M127.8,7c0,1.3-0.8,2.4-1.7,2.4h-13.6c-0.9,0-1.7-1.1-1.7-2.4l0,0c0-1.3,0.8-2.4,1.7-2.4h13.6
			C127,4.6,127.8,5.7,127.8,7L127.8,7z"/>
		<path fill="#67953D" d="M126.1,9.7h-13.6c-1.1,0-2-1.2-2-2.7c0-1.5,0.9-2.7,2-2.7h13.6c1.1,0,2,1.2,2,2.7
			C128,8.5,127.2,9.7,126.1,9.7z M112.4,4.9c-0.8,0-1.4,1-1.4,2.1c0,1.2,0.6,2.1,1.4,2.1h13.6c0.8,0,1.4-1,1.4-2.1
			c0-1.2-0.6-2.1-1.4-2.1H112.4z"/>
	</g>
</g>
</svg>
