<?xml version="1.0" encoding="utf-8"?>
<!-- Generator: Adobe Illustrator 16.0.0, SVG Export Plug-In . SVG Version: 6.00 Build 0)  -->
<!DOCTYPE svg PUBLIC "-//W3C//DTD SVG 1.0//EN" "http://www.w3.org/TR/2001/REC-SVG-20010904/DTD/svg10.dtd">
<svg version="1.0" id="Calque_1" xmlns="http://www.w3.org/2000/svg" xmlns:xlink="http://www.w3.org/1999/xlink" x="0px" y="0px"
	 width="39.501px" height="134.054px" viewBox="0 0 39.501 134.054" enable-background="new 0 0 39.501 134.054"
	 xml:space="preserve">
<g>
	<path fill="#FBEEDF" d="M20.918,0.466c0,0-5.789-0.747-5.976,3.922c-0.188,4.669,0.747,26.521-3.363,36.606
		C7.471,51.08,2.802,69.383,2.802,83.204s-0.747,44.266,2.428,47.439c3.175,3.175,15.688,2.989,16.248,2.989"/>
	<path fill="#F8BB84" d="M20.967,134.054c-3.535,0-13.191-0.271-16.034-3.113c-2.621-2.62-2.718-20.791-2.584-40.795
		c0.018-2.537,0.033-4.934,0.033-6.941c0-13.475,4.538-31.886,8.809-42.369c3.345-8.208,3.316-24.594,3.303-32.468
		c-0.002-1.762-0.005-3.154,0.028-3.996c0.053-1.325,0.53-2.376,1.416-3.125c1.877-1.583,4.906-1.214,5.034-1.197l-0.107,0.833
		c-0.027-0.003-2.795-0.337-4.387,1.008c-0.697,0.59-1.073,1.436-1.116,2.514c-0.033,0.824-0.03,2.208-0.027,3.96
		c0.014,7.928,0.042,24.425-3.365,32.787c-4.24,10.409-8.747,28.685-8.747,42.052c0,2.011-0.016,4.408-0.032,6.947
		c-0.095,14.065-0.252,37.606,2.337,40.195c2.118,2.118,9.24,2.866,15.378,2.866c0.161,0,0.321,0,0.48,0l0.093-0.002v0.841H21.39
		C21.261,134.054,21.12,134.054,20.967,134.054z"/>
</g>
<g>
	<path fill="#FBEEDF" d="M20.841,0.466c0,0,5.79-0.747,5.978,3.922c0.187,4.669-0.747,26.521,3.361,36.606
		c4.109,10.086,8.778,28.389,8.778,42.21s0.747,44.266-2.428,47.439c-3.175,3.175-15.689,2.989-16.249,2.989"/>
	<path fill="#F8BB84" d="M20.793,134.054c-0.153,0-0.294,0-0.423-0.002h-0.089v-0.841l0.094,0.002
		c6.242,0.033,13.685-0.693,15.858-2.866c2.589-2.589,2.432-26.13,2.338-40.195c-0.018-2.539-0.033-4.937-0.033-6.947
		c0-13.367-4.507-31.643-8.747-42.052c-3.407-8.362-3.379-24.859-3.365-32.787c0.003-1.752,0.005-3.136-0.028-3.96
		c-0.042-1.078-0.418-1.924-1.115-2.514c-1.591-1.346-4.359-1.012-4.387-1.008l-0.107-0.833c0.128-0.017,3.158-0.386,5.033,1.197
		c0.887,0.749,1.363,1.8,1.417,3.125c0.033,0.842,0.031,2.234,0.028,3.996c-0.014,7.874-0.042,24.26,3.303,32.468
		c4.271,10.482,8.809,28.894,8.809,42.369c0,2.008,0.017,4.404,0.033,6.941c0.135,20.004,0.036,38.175-2.584,40.795
		C33.984,133.783,24.329,134.054,20.793,134.054z"/>
</g>
<g>
	<defs>
		<rect id="SVGID_1_" y="51.425" width="39.501" height="80.648"/>
	</defs>
	<clipPath id="SVGID_2_">
		<use xlink:href="#SVGID_1_"  overflow="visible"/>
	</clipPath>
	<g clip-path="url(#SVGID_2_)">
		<path fill="#F9C38C" d="M21.227,12.013c0,0-4.947-0.664-5.106,3.484c-0.16,4.148,0.639,23.563-2.873,32.525
			c-3.511,8.962-7.501,25.225-7.501,37.504s-0.639,39.328,2.074,42.148c2.714,2.821,13.406,2.655,13.886,2.655"/>
		<path fill="#F9C38C" d="M21.161,12.013c0,0,4.948-0.664,5.108,3.484c0.159,4.148-0.639,23.563,2.872,32.525
			c3.512,8.962,7.502,25.225,7.502,37.504s0.638,39.328-2.075,42.148c-2.713,2.821-13.407,2.655-13.886,2.655"/>
	</g>
</g>
<g>
	<rect x="14.568" y="4.575" fill="#F4AFC2" width="12.699" height="20.358"/>
	<path fill="#EA86B5" d="M27.548,25.213h-13.26V4.294h13.26V25.213z M14.849,24.652h12.14V4.855h-12.14V24.652z"/>
</g>
<path fill="#FFFFFF" d="M15.831,37.54c0,0-11.766,26.055-7.845,38.1C14.431,69.478,7.986,74.8,15.831,37.54z"/>
<g>
	<rect x="10.508" y="79.843" fill="#FBEEDF" width="21.013" height="29.416"/>
	<path fill="#F8BB84" d="M31.939,109.68H10.088V79.423h21.852V109.68z M10.929,108.839H31.1V80.263H10.929V108.839z"/>
</g>
<g>
	<path fill="#F4AFC2" d="M29.371,7.004c0,1.341-0.752,2.428-1.681,2.428H14.058c-0.929,0-1.682-1.087-1.682-2.428l0,0
		c0-1.342,0.753-2.429,1.682-2.429H27.69C28.619,4.575,29.371,5.662,29.371,7.004L29.371,7.004z"/>
	<path fill="#EA86B5" d="M27.69,9.712H14.058c-1.082,0-1.962-1.216-1.962-2.708c0-1.494,0.88-2.708,1.962-2.708H27.69
		c1.082,0,1.961,1.215,1.961,2.708C29.651,8.496,28.772,9.712,27.69,9.712z M14.058,4.855c-0.76,0-1.401,0.984-1.401,2.149
		c0,1.164,0.642,2.147,1.401,2.147H27.69c0.76,0,1.4-0.983,1.4-2.147c0-1.165-0.641-2.149-1.4-2.149H14.058z"/>
</g>
</svg>
