<?xml version="1.0" encoding="utf-8"?>
<!-- Generator: Adobe Illustrator 16.0.0, SVG Export Plug-In . SVG Version: 6.00 Build 0)  -->
<!DOCTYPE svg PUBLIC "-//W3C//DTD SVG 1.0//EN" "http://www.w3.org/TR/2001/REC-SVG-20010904/DTD/svg10.dtd">
<svg version="1.0" id="Calque_1" xmlns="http://www.w3.org/2000/svg" xmlns:xlink="http://www.w3.org/1999/xlink" x="0px" y="0px"
	 width="39.502px" height="134.054px" viewBox="0 0 39.502 134.054" enable-background="new 0 0 39.502 134.054"
	 xml:space="preserve">
<g>
	<path fill="#92C46C" d="M20.919,0.466c0,0-5.79-0.747-5.977,3.922c-0.188,4.669,0.747,26.521-3.361,36.606
		c-4.11,10.086-8.778,28.389-8.778,42.21S2.056,127.47,5.23,130.644c3.174,3.175,15.688,2.989,16.249,2.989"/>
	<path fill="#56852F" d="M20.967,134.054c-3.535,0-13.19-0.271-16.034-3.113c-2.62-2.62-2.717-20.791-2.584-40.795
		c0.018-2.537,0.033-4.934,0.033-6.941c0-13.475,4.539-31.886,8.81-42.369c3.344-8.208,3.315-24.594,3.303-32.468
		c-0.003-1.762-0.005-3.154,0.028-3.996c0.053-1.325,0.529-2.376,1.416-3.125c1.876-1.583,4.905-1.214,5.034-1.197l-0.107,0.833
		c-0.027-0.003-2.796-0.337-4.387,1.008c-0.697,0.59-1.073,1.436-1.116,2.514c-0.033,0.824-0.031,2.208-0.027,3.96
		c0.013,7.928,0.041,24.425-3.365,32.787C7.729,51.561,3.223,69.837,3.223,83.204c0,2.011-0.017,4.408-0.033,6.947
		c-0.094,14.065-0.252,37.606,2.338,40.195c2.118,2.118,9.24,2.866,15.377,2.866c0.161,0,0.321,0,0.48,0l0.095-0.002v0.841h-0.089
		C21.262,134.054,21.12,134.054,20.967,134.054z"/>
</g>
<g>
	<path fill="#92C46C" d="M20.843,0.466c0,0,5.789-0.747,5.976,3.922c0.188,4.669-0.747,26.521,3.362,36.606
		c4.108,10.086,8.778,28.389,8.778,42.21s0.747,44.266-2.428,47.439c-3.176,3.175-15.688,2.989-16.249,2.989"/>
	<path fill="#56852F" d="M20.794,134.054c-0.153,0-0.295,0-0.423-0.002h-0.089v-0.841l0.094,0.002
		c6.245,0.033,13.684-0.693,15.858-2.866c2.589-2.589,2.431-26.13,2.337-40.195c-0.018-2.539-0.033-4.937-0.033-6.947
		c0-13.367-4.507-31.643-8.746-42.052c-3.407-8.362-3.379-24.859-3.365-32.787c0.002-1.752,0.005-3.136-0.028-3.96
		c-0.042-1.078-0.418-1.924-1.116-2.514c-1.591-1.346-4.358-1.012-4.387-1.008l-0.106-0.833c0.127-0.017,3.156-0.386,5.033,1.197
		c0.887,0.749,1.363,1.8,1.416,3.125c0.034,0.842,0.031,2.234,0.028,3.996c-0.014,7.874-0.041,24.26,3.303,32.468
		c4.271,10.482,8.81,28.894,8.81,42.369c0,2.008,0.016,4.404,0.032,6.941c0.135,20.004,0.038,38.175-2.583,40.795
		C33.985,133.783,24.329,134.054,20.794,134.054z"/>
</g>
<g>
	<defs>
		<rect id="SVGID_1_" y="51.425" width="39.502" height="80.648"/>
	</defs>
	<clipPath id="SVGID_2_">
		<use xlink:href="#SVGID_1_"  overflow="visible"/>
	</clipPath>
	<g clip-path="url(#SVGID_2_)">
		<path fill="#F5F4CA" d="M21.228,12.013c0,0-4.947-0.664-5.106,3.484c-0.16,4.148,0.639,23.563-2.873,32.525
			c-3.512,8.962-7.502,25.225-7.502,37.504s-0.639,39.328,2.075,42.148c2.713,2.821,13.406,2.655,13.886,2.655"/>
		<path fill="#F5F4CA" d="M21.162,12.013c0,0,4.947-0.664,5.107,3.484c0.159,4.148-0.639,23.563,2.873,32.525
			c3.512,8.962,7.501,25.225,7.501,37.504s0.639,39.328-2.075,42.148c-2.713,2.821-13.406,2.655-13.885,2.655"/>
	</g>
</g>
<rect x="14.146" y="4.575" fill="#CCC771" width="13.471" height="20.358"/>
<path fill="#FFFFFF" d="M15.129,37.54c0,0-11.767,26.055-7.845,38.1C13.728,69.478,7.284,74.8,15.129,37.54z"/>
<g>
	<rect x="10.646" y="79.843" fill="#FBFCFB" width="21.012" height="29.416"/>
	<path fill="#D8D5AA" d="M32.078,109.68H10.226V79.423h21.853V109.68z M11.066,108.839h20.172V80.263H11.066V108.839z"/>
</g>
<g>
	<path fill="#92C46C" d="M29.323,7.004c0,1.341-0.753,2.428-1.681,2.428H14.008c-0.928,0-1.681-1.087-1.681-2.428l0,0
		c0-1.342,0.753-2.429,1.681-2.429h13.635C28.57,4.575,29.323,5.662,29.323,7.004L29.323,7.004z"/>
	<path fill="#56852F" d="M27.643,9.712H14.008c-1.081,0-1.961-1.216-1.961-2.708c0-1.494,0.88-2.708,1.961-2.708h13.635
		c1.081,0,1.96,1.215,1.96,2.708C29.603,8.496,28.724,9.712,27.643,9.712z M14.008,4.855c-0.76,0-1.4,0.984-1.4,2.149
		c0,1.164,0.641,2.147,1.4,2.147h13.635c0.759,0,1.4-0.983,1.4-2.147c0-1.165-0.642-2.149-1.4-2.149H14.008z"/>
</g>
</svg>
