<?xml version="1.0" encoding="utf-8"?>
<!-- Generator: Adobe Illustrator 16.0.0, SVG Export Plug-In . SVG Version: 6.00 Build 0)  -->
<!DOCTYPE svg PUBLIC "-//W3C//DTD SVG 1.0//EN" "http://www.w3.org/TR/2001/REC-SVG-20010904/DTD/svg10.dtd">
<svg version="1.0" id="Calque_1" xmlns="http://www.w3.org/2000/svg" xmlns:xlink="http://www.w3.org/1999/xlink" x="0px" y="0px"
	 width="39.501px" height="134.054px" viewBox="0 0 39.501 134.054" enable-background="new 0 0 39.501 134.054"
	 xml:space="preserve">
<g>
	<path fill="#92C46C" d="M20.918,0.466c0,0-5.79-0.747-5.978,3.922c-0.187,4.669,0.748,26.521-3.361,36.606
		C7.47,51.08,2.802,69.383,2.802,83.204c0,13.822-0.747,44.266,2.427,47.439c3.176,3.176,15.689,2.99,16.249,2.99"/>
	<path fill="#6A9D3A" d="M20.966,134.053c-3.535,0-13.191-0.27-16.034-3.113c-2.62-2.619-2.717-20.791-2.584-40.795
		c0.017-2.537,0.033-4.934,0.033-6.941c0-13.475,4.539-31.886,8.81-42.368c3.344-8.208,3.315-24.594,3.303-32.468
		c-0.004-1.762-0.006-3.154,0.028-3.996c0.053-1.325,0.529-2.376,1.416-3.125c1.876-1.583,4.905-1.214,5.034-1.197l-0.107,0.833
		c-0.027-0.003-2.796-0.337-4.387,1.008c-0.697,0.59-1.073,1.436-1.116,2.514c-0.033,0.824-0.031,2.208-0.027,3.96
		c0.013,7.928,0.041,24.425-3.365,32.787C7.728,51.561,3.221,69.836,3.221,83.204c0,2.012-0.016,4.408-0.033,6.947
		c-0.094,14.066-0.251,37.607,2.339,40.195c2.174,2.174,9.622,2.895,15.857,2.867l0.094-0.002v0.84h-0.089
		C21.26,134.053,21.118,134.053,20.966,134.053z"/>
</g>
<g>
	<path fill="#92C46C" d="M20.841,0.466c0,0,5.79-0.747,5.977,3.922S26.07,30.909,30.18,40.994
		c4.108,10.086,8.777,28.389,8.777,42.209c0,13.822,0.747,44.266-2.427,47.439c-3.176,3.176-15.689,2.99-16.249,2.99"/>
	<path fill="#6A9D3A" d="M20.793,134.053c-0.154,0-0.295,0-0.424-0.002h-0.088v-0.84l0.094,0.002
		c6.249,0.033,13.684-0.693,15.857-2.867c2.59-2.588,2.432-26.129,2.338-40.195c-0.018-2.539-0.033-4.936-0.033-6.947
		c0-13.367-4.507-31.643-8.746-42.051c-3.408-8.362-3.38-24.859-3.365-32.787c0.002-1.752,0.005-3.136-0.028-3.96
		c-0.043-1.078-0.419-1.924-1.116-2.514c-1.591-1.346-4.359-1.012-4.387-1.008l-0.107-0.833c0.128-0.017,3.157-0.386,5.034,1.197
		c0.886,0.749,1.363,1.8,1.416,3.125c0.034,0.842,0.031,2.234,0.028,3.996c-0.014,7.874-0.041,24.26,3.303,32.468
		c4.271,10.482,8.809,28.894,8.809,42.368c0,2.008,0.017,4.404,0.033,6.941c0.134,20.004,0.037,38.176-2.583,40.795
		C33.984,133.784,24.328,134.053,20.793,134.053z"/>
</g>
<g>
	<defs>
		<rect id="SVGID_1_" y="51.425" width="39.501" height="80.648"/>
	</defs>
	<clipPath id="SVGID_2_">
		<use xlink:href="#SVGID_1_"  overflow="visible"/>
	</clipPath>
	<g clip-path="url(#SVGID_2_)">
		<path fill="#A81916" d="M21.227,12.013c0,0-4.947-0.664-5.107,3.484c-0.159,4.148,0.64,23.563-2.873,32.525
			c-3.511,8.962-7.501,25.224-7.501,37.503s-0.639,39.328,2.075,42.148c2.713,2.822,13.406,2.656,13.885,2.656"/>
		<path fill="#A81916" d="M21.161,12.013c0,0,4.947-0.664,5.106,3.484c0.16,4.148-0.638,23.563,2.874,32.525
			c3.511,8.962,7.501,25.224,7.501,37.503s0.639,39.328-2.074,42.148c-2.714,2.822-13.407,2.656-13.886,2.656"/>
	</g>
</g>
<g>
	<rect x="14.287" y="4.528" fill="#68140F" width="13.4" height="20.404"/>
	<path fill="#4A150C" d="M27.968,25.213H14.007V4.249h13.961V25.213z M14.567,24.652h12.84V4.809h-12.84V24.652z"/>
</g>
<path fill="#FFFFFF" d="M16.533,37.54c0,0-11.767,26.055-7.844,38.1C15.132,69.477,8.689,74.799,16.533,37.54z"/>
<g>
	<rect x="10.37" y="79.842" fill="#FBFCFB" width="21.011" height="29.416"/>
	<path fill="#501011" d="M31.802,109.68H9.949V79.422h21.853V109.68z M10.79,108.838h20.172V80.262H10.79V108.838z"/>
</g>
<g>
	<path fill="#92C46C" d="M29.421,7.004c0,1.341-0.753,2.428-1.681,2.428H14.105c-0.928,0-1.681-1.087-1.681-2.428l0,0
		c0-1.342,0.753-2.429,1.681-2.429H27.74C28.668,4.575,29.421,5.662,29.421,7.004L29.421,7.004z"/>
	<path fill="#56852F" d="M27.74,9.712H14.105c-1.081,0-1.961-1.216-1.961-2.708c0-1.494,0.88-2.708,1.961-2.708H27.74
		c1.081,0,1.961,1.215,1.961,2.708C29.701,8.496,28.821,9.712,27.74,9.712z M14.105,4.855c-0.759,0-1.4,0.984-1.4,2.149
		c0,1.164,0.642,2.147,1.4,2.147H27.74c0.759,0,1.4-0.983,1.4-2.147c0-1.165-0.642-2.149-1.4-2.149H14.105z"/>
</g>
</svg>
