<?xml version="1.0" encoding="utf-8"?>
<!-- Generator: Adobe Illustrator 18.0.0, SVG Export Plug-In . SVG Version: 6.00 Build 0)  -->
<!DOCTYPE svg PUBLIC "-//W3C//DTD SVG 1.1//EN" "http://www.w3.org/Graphics/SVG/1.1/DTD/svg11.dtd">
<svg version="1.1" id="Calque_1" xmlns="http://www.w3.org/2000/svg" xmlns:xlink="http://www.w3.org/1999/xlink" x="0px" y="0px"
	 viewBox="0 0 139.9 135.3" enable-background="new 0 0 139.9 135.3" xml:space="preserve" width="140" height="135">
<g id="miel_tapis">
	<path opacity="5.000000e-002" fill="#020203" d="M33.3,34.7l-0.6,1.5c-0.5,1.4-0.8,2.5-1,3.6c-1.1,4.9-1.8,8.1-18.7,18.7
		C-6.6,70.9-0.2,99.3,7.4,125c3,10.1,25.2,10.2,41.4,10.3c1.3,0,2.6,0,3.9,0l0-0.1c1.6,0,3.3,0,5.1,0c16.4-0.1,38.8-0.3,41.8-10.4
		c7.3-24.9,13.3-54.9-5.6-66.8c-17-10.7-17.6-13.5-18.7-18.2c-0.2-1.1-0.5-2.2-1-3.5l-0.6-1.5l1.6,0.2c1.6,0.2,2.2,0,2.4,0
		c-0.1-0.3-0.5-0.8-0.9-1.2H30.2c-0.4,0.4-0.8,0.9-0.9,1.2c0.2,0.1,0.9,0.2,2.4,0L33.3,34.7z"/>
	<g>
		<path fill="#FBC00E" d="M79.8,127.4c-10.4,2.1-40.1,2.8-55,0.7s-13.6-5.2-10.4-9.6c3.2-4.4-4-26.8-4.4-39.9
			c-0.4-13,10.4-19,10.4-19h63.4c0,0,10.8,6,10.4,19c-0.4,13-7.6,35.4-4.4,39.8c3.2,4.4,4.4,7.6-10.4,9.6c-14.8,2.1-44.5,1.3-55-0.7
			"/>
		<path fill="#FFFFFF" d="M36,58.5l-12.8-1.4c0,0-16.1,18.7,1.4,15.8C42.2,70,21.7,71.9,36,58.5z"/>
		<path fill="#FBBC20" d="M15.9,38.7c0,6.1,4.7,11,10.5,11h51c5.8,0,10.5-4.9,10.5-11l0,0c0-6.1-4.7-11-10.5-11h-51
			C20.6,27.7,15.9,32.6,15.9,38.7L15.9,38.7z"/>
		<rect x="24" y="27.7" fill="#020203" width="2" height="22"/>
		<rect x="33" y="27.7" fill="#020203" width="2" height="22"/>
		<rect x="42" y="27.7" fill="#020203" width="2" height="22"/>
		<rect x="51" y="27.7" fill="#020203" width="2" height="22"/>
		<rect x="60" y="27.7" fill="#020203" width="2" height="22"/>
		<rect x="69" y="27.7" fill="#020203" width="2" height="22"/>
		<rect x="78" y="27.7" fill="#020203" width="2" height="22"/>
		<path fill="#CC7A1C" d="M114.9,129.6c0,2.5,2,4.5,4.5,4.5l0,0c2.5,0,4.5-2,4.5-4.5V4.5c0-2.5-2-4.5-4.5-4.5l0,0
			c-2.5,0-4.5,2-4.5,4.5V129.6z"/>
		<path fill="#CC7A1C" d="M104.9,9.7c0,1.7,1.4,3,3,3h23.3c1.7,0,3-1.4,3-3l0,0c0-1.7-1.4-3-3-3H108C106.3,6.6,104.9,8,104.9,9.7
			L104.9,9.7z"/>
		<path fill="#CC7A1C" d="M104.9,38c0,1.7,1.4,3,3,3h23.3c1.7,0,3-1.4,3-3l0,0c0-1.7-1.4-3-3-3H108C106.3,35,104.9,36.3,104.9,38
			L104.9,38z"/>
		<path fill="#CC7A1C" d="M99.9,23.5c0,2.5,1.9,4.5,4.2,4.5h31.7c2.3,0,4.2-2,4.2-4.5l0,0c0-2.5-1.9-4.5-4.2-4.5h-31.7
			C101.8,19,99.9,21,99.9,23.5L99.9,23.5z"/>
	</g>
	<g>
		<polygon fill="#020203" points="39.8,88.6 36.6,83 39.8,77.5 46.2,77.5 49.4,83 46.2,88.6 		"/>
		<polygon fill="#AA751A" points="40.7,87 38.4,83 40.7,79.1 45.2,79.1 47.5,83 45.2,87 		"/>
	</g>
	<g>
		<polygon fill="#020203" points="39.8,101.4 36.6,95.8 39.8,90.3 46.2,90.3 49.4,95.8 46.2,101.4 		"/>
		<polygon fill="#AA751A" points="40.7,99.8 38.4,95.8 40.7,91.9 45.2,91.9 47.5,95.8 45.2,99.8 		"/>
	</g>
	<g>
		<polygon fill="#020203" points="39.8,114.4 36.6,108.8 39.8,103.3 46.2,103.3 49.4,108.8 46.2,114.4 		"/>
		<polygon fill="#AA751A" points="40.7,112.8 38.4,108.8 40.7,104.9 45.2,104.9 47.5,108.8 45.2,112.8 		"/>
	</g>
	<g>
		<polygon fill="#020203" points="51.3,94.5 48.1,88.9 51.3,83.4 57.7,83.4 61,88.9 57.7,94.5 		"/>
		<polygon fill="#AA751A" points="52.2,92.9 50,88.9 52.2,85 56.8,85 59.1,88.9 56.8,92.9 		"/>
	</g>
	<g>
		<polygon fill="#020203" points="51.3,107.8 48.1,102.2 51.3,96.7 57.7,96.7 61,102.2 57.7,107.8 		"/>
		<polygon fill="#AA751A" points="52.2,106.2 50,102.2 52.2,98.3 56.8,98.3 59.1,102.2 56.8,106.2 		"/>
	</g>
	<g>
		<polygon fill="#020203" points="62.3,101.4 59.1,95.8 62.3,90.3 68.7,90.3 71.9,95.8 68.7,101.4 		"/>
		<polygon fill="#AA751A" points="63.2,99.8 60.9,95.8 63.2,91.9 67.8,91.9 70,95.8 67.8,99.8 		"/>
	</g>
</g>
</svg>
