<?xml version="1.0" encoding="utf-8"?>
<!-- Generator: Adobe Illustrator 16.0.0, SVG Export Plug-In . SVG Version: 6.00 Build 0)  -->
<!DOCTYPE svg PUBLIC "-//W3C//DTD SVG 1.0//EN" "http://www.w3.org/TR/2001/REC-SVG-20010904/DTD/svg10.dtd">
<svg version="1.0" id="Calque_1" xmlns="http://www.w3.org/2000/svg" xmlns:xlink="http://www.w3.org/1999/xlink" x="0px" y="0px"
	 width="106.75px" height="107.656px" viewBox="0 0 106.75 107.656" enable-background="new 0 0 106.75 107.656"
	 xml:space="preserve">
<g id="miel_tapis">
	<path opacity="0.05" fill="#000100" d="M33.261,7.091L32.7,8.611c-0.5,1.356-0.754,2.501-0.999,3.608
		c-1.072,4.854-1.781,8.061-18.699,18.67C-6.641,43.208-0.167,71.654,7.443,97.351c2.984,10.081,25.207,10.196,41.434,10.28
		c1.329,0.007,2.621,0.013,3.861,0.025l-0.002-0.132c1.612-0.024,3.33-0.035,5.118-0.048c16.386-0.108,38.827-0.258,41.831-10.427
		c7.343-24.856,13.347-54.909-5.56-66.766c-16.99-10.655-17.638-13.487-18.711-18.18c-0.243-1.062-0.494-2.16-0.986-3.493
		l-0.561-1.521l1.61,0.181c1.558,0.175,2.205,0.041,2.438-0.041c-0.11-0.29-0.5-0.796-0.943-1.23H30.156
		c-0.443,0.435-0.833,0.94-0.943,1.23c0.232,0.082,0.88,0.216,2.438,0.041L33.261,7.091z"/>
	<g>
		<path fill="#F9B40D" d="M79.84,99.739c-10.433,2.069-40.124,2.81-54.969,0.739s-13.642-5.175-10.432-9.61
			c3.211-4.436-4.013-26.847-4.413-39.858S20.457,32,20.457,32h63.384c0,0,10.833,5.998,10.433,19.01s-7.623,35.381-4.414,39.815
			c3.211,4.436,4.414,7.562-10.432,9.632c-14.846,2.069-44.535,1.341-54.968-0.729"/>
		<path fill="#FFFFFF" d="M36.037,30.809l-12.765-1.401c0,0-16.082,18.711,1.426,15.838C42.207,42.372,21.658,44.264,36.037,30.809z
			"/>
		<path fill="#F8AF17" d="M15.937,10.999c0,6.074,4.702,10.999,10.502,10.999h51.011c5.8,0,10.502-4.925,10.502-10.999l0,0
			C87.951,4.925,83.249,0,77.449,0H26.438C20.639,0,15.937,4.925,15.937,10.999L15.937,10.999z"/>
		<rect x="23.951" fill="#000100" width="2" height="22"/>
		<rect x="32.951" fill="#000100" width="2" height="22"/>
		<rect x="41.951" fill="#000100" width="2" height="22"/>
		<rect x="50.951" fill="#000100" width="2" height="22"/>
		<rect x="59.951" fill="#000100" width="2" height="22"/>
		<rect x="68.951" fill="#000100" width="2" height="22"/>
		<rect x="77.951" fill="#000100" width="2" height="22"/>
	</g>
	<g>
		<polygon fill="#000100" points="39.77,60.924 36.559,55.363 39.77,49.804 46.19,49.804 49.4,55.363 46.19,60.924 		"/>
		<polygon fill="#986115" points="40.696,59.305 38.42,55.362 40.696,51.422 45.248,51.422 47.523,55.362 45.248,59.305 		"/>
	</g>
	<g>
		<polygon fill="#000100" points="39.77,73.758 36.559,68.197 39.77,62.638 46.19,62.638 49.4,68.197 46.19,73.758 		"/>
		<polygon fill="#986115" points="40.696,72.139 38.42,68.196 40.696,64.256 45.248,64.256 47.523,68.196 45.248,72.139 		"/>
	</g>
	<g>
		<polygon fill="#000100" points="39.77,86.758 36.559,81.197 39.77,75.638 46.19,75.638 49.4,81.197 46.19,86.758 		"/>
		<polygon fill="#986115" points="40.696,85.139 38.42,81.196 40.696,77.256 45.248,77.256 47.523,81.196 45.248,85.139 		"/>
	</g>
	<g>
		<polygon fill="#000100" points="51.32,66.854 48.11,61.294 51.32,55.734 57.74,55.734 60.951,61.294 57.74,66.854 		"/>
		<polygon fill="#986115" points="52.247,65.235 49.971,61.293 52.247,57.353 56.799,57.353 59.074,61.293 56.799,65.235 		"/>
	</g>
	<g>
		<polygon fill="#000100" points="51.32,80.119 48.11,74.559 51.32,68.999 57.74,68.999 60.951,74.559 57.74,80.119 		"/>
		<polygon fill="#986115" points="52.247,78.5 49.971,74.558 52.247,70.617 56.799,70.617 59.074,74.558 56.799,78.5 		"/>
	</g>
	<g>
		<polygon fill="#000100" points="62.285,73.757 59.074,68.196 62.285,62.637 68.705,62.637 71.916,68.196 68.705,73.757 		"/>
		<polygon fill="#986115" points="63.211,72.138 60.936,68.195 63.211,64.255 67.763,64.255 70.039,68.195 67.763,72.138 		"/>
	</g>
</g>
</svg>
