<?xml version="1.0" encoding="utf-8"?>
<!-- Generator: Adobe Illustrator 16.0.0, SVG Export Plug-In . SVG Version: 6.00 Build 0)  -->
<!DOCTYPE svg PUBLIC "-//W3C//DTD SVG 1.0//EN" "http://www.w3.org/TR/2001/REC-SVG-20010904/DTD/svg10.dtd">
<svg version="1.0" id="Calque_1" xmlns="http://www.w3.org/2000/svg" xmlns:xlink="http://www.w3.org/1999/xlink" x="0px" y="0px"
	 width="104.521px" height="98.488px" viewBox="0 0 104.521 98.488" enable-background="new 0 0 104.521 98.488"
	 xml:space="preserve">
<g>
	<g>
		<path fill="#218035" d="M46.605,14.25c0,0-19.021,35.839-46.605-3.256"/>
	</g>
	<g>
		<path fill="#218035" d="M44.615,26.187c0,0-4.045-40.37-44.377-14.62"/>
	</g>
</g>
<path fill="#C5581E" d="M82.29,90.425c0,0-22.398,25.446-53.477-14.071c-31.075-39.519-3.401-56.05,11.26-60.396
	c13.261-12.81,41.255-32.256,56.906,8.993C112.629,66.2,102.068,84.771,82.29,90.425z"/>
<path fill="#F9F7F3" d="M35.71,27.077c0,0-1.217-0.026-2.969,0.317c-4.903,0.958-13.999,4.804-12.321,20.192
	c2.276,20.885,20.584,14.904,12.747,1.478C25.33,35.636,32.451,29.342,35.71,27.077z"/>
<rect x="31.452" y="11.235" transform="matrix(0.5359 0.8443 -0.8443 0.5359 30.6301 -26.5293)" fill="#352214" width="15.988" height="6.723"/>
</svg>
