<?xml version="1.0" encoding="utf-8"?>
<!-- Generator: Adobe Illustrator 18.0.0, SVG Export Plug-In . SVG Version: 6.00 Build 0)  -->
<!DOCTYPE svg PUBLIC "-//W3C//DTD SVG 1.1//EN" "http://www.w3.org/Graphics/SVG/1.1/DTD/svg11.dtd">
<svg version="1.1" id="Calque_1" xmlns="http://www.w3.org/2000/svg" xmlns:xlink="http://www.w3.org/1999/xlink" x="0px" y="0px" width="140" height="110"
	 viewBox="0 0 178.1 141.4" enable-background="new 0 0 178.1 141.4" xml:space="preserve">
<g id="pomme_tapis">
	<g>
		<g>
			<path fill="#249045" d="M46.6,34.4c0,0-19,35.8-46.6-3.3"/>
		</g>
		<g>
			<path fill="#249045" d="M44.6,46.3c0,0-4-40.4-44.4-14.6"/>
		</g>
	</g>
	<g>
		<g>
			<path fill="#249045" d="M131.1,29.6c0,0-7.6-21.5,25.2-29.6"/>
		</g>
		<g>
			<path fill="#249045" d="M126.4,25.2c0,0,21.5,7.6,29.6-25.2"/>
		</g>
	</g>
	<path fill="#ED6B3A" d="M127.5,110.3c0,0-34.1,8.3-40.1-43.2c-6.1-51.5,27.8-49.2,43.4-44.3c18.9-3,54.7-3,46,40.9
		C168,107.6,148.3,117.1,127.5,110.3z"/>
	<path fill="#FBFAF7" d="M120.7,29.6c0,0-1.1-0.7-2.8-1.5c-4.9-2.1-15.2-4.1-22.2,9.8c-9.5,18.9,10.2,24.6,10.6,8.7
		C106.6,30.8,116.5,29.6,120.7,29.6z"/>
	
		<rect x="122.7" y="17.9" transform="matrix(1.453380e-002 0.9999 -0.9999 1.453380e-002 150.2726 -109.8814)" fill="#462E1A" width="16.4" height="6.7"/>
	<path fill="#D26D27" d="M82.3,110.5c0,0-22.4,25.4-53.5-14.1c-31.1-39.5-3.4-56.1,11.3-60.4c13.3-12.8,41.3-32.3,56.9,9
		C112.6,86.3,102.1,104.9,82.3,110.5z"/>
	<path fill="#FBFAF7" d="M35.7,47.2c0,0-1.2,0-3,0.3c-4.9,1-14,4.8-12.3,20.2c2.3,20.9,20.6,14.9,12.7,1.5
		C25.3,55.7,32.5,49.4,35.7,47.2z"/>
	
		<rect x="31.5" y="31.3" transform="matrix(0.5359 0.8443 -0.8443 0.5359 47.6064 -17.1977)" fill="#462E1A" width="16" height="6.7"/>
	<path fill="#E65826" d="M88.9,136.3c0,0-33.9,0.6-25.6-49c8.3-49.6,39.2-40.3,52.2-32.3c18.4,1.2,51.6,8.8,31.7,48.1
		C127.3,142.5,106.4,147.2,88.9,136.3z"/>
	<path fill="#FBFAF7" d="M104.4,59.2c0,0-0.8-0.9-2.2-2c-4-3-13-7.1-23.2,4.5C65,77.5,81.8,87,86.4,72.2
		C91.1,57.3,100.5,58.4,104.4,59.2z"/>
	
		<rect x="112.8" y="45.6" transform="matrix(0.9647 0.2633 -0.2633 0.9647 18.2126 -28.6928)" fill="#462E1A" width="6.7" height="16"/>
</g>
</svg>
