<?xml version="1.0" encoding="utf-8"?>
<!-- Generator: Adobe Illustrator 16.0.0, SVG Export Plug-In . SVG Version: 6.00 Build 0)  -->
<!DOCTYPE svg PUBLIC "-//W3C//DTD SVG 1.0//EN" "http://www.w3.org/TR/2001/REC-SVG-20010904/DTD/svg10.dtd">
<svg version="1.0" id="Calque_1" xmlns="http://www.w3.org/2000/svg" xmlns:xlink="http://www.w3.org/1999/xlink" x="0px" y="0px"
	 width="91.44px" height="112.295px" viewBox="0 0 91.44 112.295" enable-background="new 0 0 91.44 112.295" xml:space="preserve">
<g>
	<g>
		<path fill="#218035" d="M44.539,29.582c0,0-7.626-21.524,25.236-29.582"/>
	</g>
	<g>
		<path fill="#218035" d="M39.793,25.248c0,0,21.523,7.626,29.582-25.237"/>
	</g>
</g>
<path fill="#E9532B" d="M40.862,110.297c0,0-34.085,8.333-40.145-43.175c-6.061-51.507,27.837-49.234,43.365-44.312
	c18.936-3.03,54.726-3.03,46.014,40.903C81.386,107.646,61.691,117.114,40.862,110.297z"/>
<path fill="#F9F7F3" d="M34.045,28.629c0.001,0-1.074-0.735-2.832-1.473c-4.921-2.064-15.187-4.148-22.163,9.805
	c-9.47,18.936,10.225,24.616,10.603,8.711C20.033,29.765,29.878,28.629,34.045,28.629z"/>
<rect x="36.073" y="17.934" transform="matrix(0.0145 0.9999 -0.9999 0.0145 64.9205 -23.2797)" fill="#352214" width="16.395" height="6.722"/>
</svg>
