<?xml version="1.0" encoding="utf-8"?>
<!-- Generator: Adobe Illustrator 16.0.0, SVG Export Plug-In . SVG Version: 6.00 Build 0)  -->
<!DOCTYPE svg PUBLIC "-//W3C//DTD SVG 1.0//EN" "http://www.w3.org/TR/2001/REC-SVG-20010904/DTD/svg10.dtd">
<svg version="1.0" id="Calque_1" xmlns="http://www.w3.org/2000/svg" xmlns:xlink="http://www.w3.org/1999/xlink" x="0px" y="0px"
	 width="91.382px" height="96.361px" viewBox="0 0 91.382 96.361" enable-background="new 0 0 91.382 96.361" xml:space="preserve">
<path fill="#DC411D" d="M26.909,91.33c0,0-33.894,0.572-25.603-49.013C9.601-7.267,40.457,2.061,53.541,9.979
	c18.398,1.178,51.626,8.781,31.668,48.125C65.248,97.45,44.406,102.146,26.909,91.33z"/>
<path fill="#F9F7F3" d="M42.381,14.238c0,0-0.802-0.918-2.232-1.983c-4.01-2.978-12.98-7.116-23.226,4.486
	c-13.908,15.746,2.842,25.257,7.49,10.421C29.064,12.327,38.513,13.353,42.381,14.238z"/>
<rect x="50.765" y="0.603" transform="matrix(0.9647 0.2633 -0.2633 0.9647 4.1734 -13.9479)" fill="#352214" width="6.721" height="15.988"/>
</svg>
