<?xml version="1.0" encoding="utf-8"?>
<!-- Generator: Adobe Illustrator 16.0.0, SVG Export Plug-In . SVG Version: 6.00 Build 0)  -->
<!DOCTYPE svg PUBLIC "-//W3C//DTD SVG 1.0//EN" "http://www.w3.org/TR/2001/REC-SVG-20010904/DTD/svg10.dtd">
<svg version="1.0" id="Calque_1" xmlns="http://www.w3.org/2000/svg" xmlns:xlink="http://www.w3.org/1999/xlink" x="0px" y="0px"
	 width="40px" height="134.072px" viewBox="0 0 40 134.072" enable-background="new 0 0 40 134.072" xml:space="preserve">
<path fill="#C06616" d="M15,129.572c0,2.485,2.015,4.5,4.5,4.5l0,0c2.485,0,4.5-2.015,4.5-4.5V4.5C24,2.015,21.985,0,19.5,0l0,0
	C17.015,0,15,2.015,15,4.5V129.572z"/>
<path fill="#C06616" d="M5,9.688c0,1.683,1.364,3.047,3.049,3.047h23.274c1.683,0,3.048-1.364,3.048-3.047l0,0
	c0-1.685-1.365-3.049-3.048-3.049H8.049C6.364,6.64,5,8.004,5,9.688L5,9.688z"/>
<path fill="#C06616" d="M5,38.001c0,1.683,1.364,3.047,3.049,3.047h23.274c1.683,0,3.048-1.364,3.048-3.047l0,0
	c0-1.685-1.365-3.049-3.048-3.049H8.049C6.364,34.952,5,36.316,5,38.001L5,38.001z"/>
<path fill="#C06616" d="M0,23.502C0,25.985,1.858,28,4.152,28H35.85c2.291,0,4.15-2.015,4.15-4.498l0,0
	C40,21.015,38.141,19,35.85,19H4.152C1.858,19,0,21.015,0,23.502L0,23.502z"/>
</svg>
