<?xml version="1.0" encoding="utf-8"?>
<!-- Generator: Adobe Illustrator 18.0.0, SVG Export Plug-In . SVG Version: 6.00 Build 0)  -->
<!DOCTYPE svg PUBLIC "-//W3C//DTD SVG 1.1//EN" "http://www.w3.org/Graphics/SVG/1.1/DTD/svg11.dtd">
<svg version="1.1" id="Calque_1" xmlns="http://www.w3.org/2000/svg" xmlns:xlink="http://www.w3.org/1999/xlink" x="0px" y="0px" width="300" height="178"
	 viewBox="0 0 81 48" enable-background="new 0 0 81 48" xml:space="preserve">
<g id="rouleaux">
	<g>
		<path fill="#FFD63E" d="M31.2,41.8c3.8-6.1,1.9-14.1-4.2-17.9c-5.2-3.2-11.8-2.3-16,1.9l0,0L33.5,3.2l0,0C37.7-0.4,44-1.1,49,1.9
			c6.1,3.8,8,11.8,4.2,17.9c-0.4,0.6-0.8,1.2-1.3,1.8l0,0L29.3,44.2l0,0C30,43.5,30.7,42.7,31.2,41.8z"/>
		<path fill="#FFFFFF" d="M9.1,28.2c0.5-0.9,1.2-1.7,1.9-2.4c4.2-4.2,10.8-5.1,16-1.9c6.2,3.8,8,11.7,4.2,17.9
			c-0.5,0.9-1.2,1.7-1.9,2.4c-4.2,4.2-10.8,5.1-16,1.9C7.2,42.3,5.3,34.3,9.1,28.2z"/>
		<path fill="#FFD63E" d="M22.6,32.8c0.9-0.4,5.2-2.9,7.2-4c-0.9-1.3-2-2.5-3.5-3.4c-1.6-1-3.3-1.5-5.1-1.6l0,8.5
			C21.2,32.2,21.4,33.4,22.6,32.8z"/>
		<path fill="#FFD63E" d="M18.6,37c-0.9,0.4-5.4,2.9-7.4,4c0.9,1.3,2,2.5,3.5,3.4c1.6,1,3.4,1.5,5.2,1.6l0.2-8.4
			C20,37.6,19.8,36.5,18.6,37z"/>
		<path fill="#FFD63E" d="M29.8,40.9l-7.4-4.1c0,0-1.1-0.4-1.2,0.9c0,1,0,5.9,0.1,8.2C24.7,45.7,27.9,43.9,29.8,40.9z"/>
		<path fill="#FFD63E" d="M23.6,35.4c0.8,0.5,5,2.8,7.1,3.9c1.4-3.2,1.1-6.8-0.4-9.7l-6.9,4.3C23.3,33.9,22.4,34.7,23.6,35.4z"/>
		<path fill="#FFD63E" d="M17.7,33.8c-0.8-0.6-4.9-3.3-6.8-4.6c-1.8,3.1-2,6.8-0.7,9.9l7.6-3.9C17.8,35.3,18.8,34.6,17.7,33.8z"/>
		<path fill="#FFD63E" d="M19.9,31.7c0.1-1,0.3-5.6,0.3-8c-3.3,0.1-6.6,1.7-8.7,4.5l7.1,4.4C18.7,32.6,19.8,33.1,19.9,31.7z"/>
		<circle fill="#FFD63E" cx="20.5" cy="34.9" r="1.6"/>
	</g>
</g>
<polygon id="tapis" fill="#FFFFFF" points="79.6,3.2 0,3.2 0,20.2 78.3,20.2 81,20.2 81,3.2 "/>
</svg>
