<?xml version="1.0" encoding="utf-8"?>
<!-- Generator: Adobe Illustrator 18.0.0, SVG Export Plug-In . SVG Version: 6.00 Build 0)  -->
<!DOCTYPE svg PUBLIC "-//W3C//DTD SVG 1.1//EN" "http://www.w3.org/Graphics/SVG/1.1/DTD/svg11.dtd">
<svg version="1.1" id="Calque_1" xmlns="http://www.w3.org/2000/svg" xmlns:xlink="http://www.w3.org/1999/xlink" x="0px" y="0px" width="300" height="178"
	 viewBox="0 0 81 48" enable-background="new 0 0 81 48" xml:space="preserve">
<g id="rouleaux">
	<g>
		<path fill="#FFD63E" d="M31.2,41.8c3.8-6.1,1.9-14.1-4.2-17.9c-5.2-3.2-11.8-2.3-16,1.9l0,0L33.5,3.2l0,0C37.7-0.4,44-1.1,49,1.9
			c6.1,3.8,8,11.8,4.2,17.9c-0.4,0.6-0.8,1.2-1.3,1.8l0,0L29.3,44.2l0,0C30,43.5,30.7,42.7,31.2,41.8z"/>
		<path fill="#FFFFFF" d="M9.1,28.2c0.5-0.9,1.2-1.7,1.9-2.4c4.2-4.2,10.8-5.1,16-1.9c6.2,3.8,8,11.7,4.2,17.9
			c-0.5,0.9-1.2,1.7-1.9,2.4c-4.2,4.2-10.8,5.1-16,1.9C7.2,42.3,5.3,34.3,9.1,28.2z"/>
	</g>
</g>
<polygon id="tapis" fill="#FFFFFF" points="79.6,3.2 0,3.2 0,20.2 78.3,20.2 81,20.2 81,3.2 "/>
</svg>
