<?xml version="1.0" encoding="utf-8"?>
<!-- Generator: Adobe Illustrator 18.0.0, SVG Export Plug-In . SVG Version: 6.00 Build 0)  -->
<!DOCTYPE svg PUBLIC "-//W3C//DTD SVG 1.1//EN" "http://www.w3.org/Graphics/SVG/1.1/DTD/svg11.dtd">
<svg version="1.1" id="Calque_1" xmlns="http://www.w3.org/2000/svg" xmlns:xlink="http://www.w3.org/1999/xlink" x="0px" y="0px" width="100" height="100"
	 viewBox="0 0 26 26" enable-background="new 0 0 26 26" xml:space="preserve">
<path fill="#FFFFFF" d="M1.9,6.2c0.5-0.9,1.2-1.7,1.9-2.4c4.2-4.2,10.8-5.1,16-1.9c6.2,3.8,8,11.7,4.2,17.9
	c-0.5,0.9-1.2,1.7-1.9,2.4c-4.2,4.2-10.8,5.1-16,1.9C0.1,20.3-1.8,12.3,1.9,6.2z"/>
<path fill="#FFD63E" d="M15.4,10.8c0.9-0.4,5.2-2.9,7.2-4c-0.9-1.3-2-2.5-3.5-3.4c-1.6-1-3.3-1.5-5.1-1.6l0,8.5
	C14,10.2,14.2,11.4,15.4,10.8z"/>
<path fill="#FFD63E" d="M11.5,15C10.5,15.5,6,17.9,4,19c0.9,1.3,2,2.5,3.5,3.4c1.6,1,3.4,1.5,5.2,1.6l0.2-8.4
	C12.8,15.6,12.7,14.5,11.5,15z"/>
<path fill="#FFD63E" d="M22.7,18.9l-7.4-4.1c0,0-1.1-0.4-1.2,0.9c0,1,0,5.9,0.1,8.2C17.5,23.7,20.7,21.9,22.7,18.9z"/>
<path fill="#FFD63E" d="M16.4,13.4c0.8,0.5,5,2.8,7.1,3.9c1.4-3.2,1.1-6.8-0.4-9.7l-6.9,4.3C16.2,11.9,15.3,12.7,16.4,13.4z"/>
<path fill="#FFD63E" d="M10.6,11.8c-0.8-0.6-4.9-3.3-6.8-4.6c-1.8,3.1-2,6.8-0.7,9.9l7.6-3.9C10.7,13.3,11.6,12.6,10.6,11.8z"/>
<path fill="#FFD63E" d="M12.7,9.7c0.1-1,0.3-5.6,0.3-8C9.7,1.8,6.5,3.4,4.4,6.2l7.1,4.4C11.5,10.6,12.6,11.1,12.7,9.7z"/>
<circle fill="#FFD63E" cx="13.3" cy="12.9" r="1.6"/>
</svg>
