<?xml version="1.0" encoding="utf-8"?>
<!-- Generator: Adobe Illustrator 18.0.0, SVG Export Plug-In . SVG Version: 6.00 Build 0)  -->
<!DOCTYPE svg PUBLIC "-//W3C//DTD SVG 1.1//EN" "http://www.w3.org/Graphics/SVG/1.1/DTD/svg11.dtd">
<svg version="1.1" id="Calque_1" xmlns="http://www.w3.org/2000/svg" xmlns:xlink="http://www.w3.org/1999/xlink" x="0px" y="0px" width="50" height="50"
	 viewBox="0 0 26 26" enable-background="new 0 0 26 26" xml:space="preserve">
<path fill="#FFD63E" d="M15.1,10.9c0.9-0.4,5.2-2.9,7.2-4c-0.9-1.3-2-2.5-3.5-3.4c-1.6-1-3.3-1.5-5.1-1.6l0,8.5
	C13.7,10.4,13.9,11.5,15.1,10.9z"/>
<path fill="#FFD63E" d="M11.1,15.2c-0.9,0.4-5.4,2.9-7.4,4c0.9,1.3,2,2.5,3.5,3.4c1.6,1,3.4,1.5,5.2,1.6l0.2-8.4
	C12.5,15.8,12.3,14.6,11.1,15.2z"/>
<path fill="#FFD63E" d="M22.4,19L15,14.9c0,0-1.1-0.4-1.2,0.9c0,1,0,5.9,0.1,8.2C17.2,23.8,20.4,22,22.4,19z"/>
<path fill="#FFD63E" d="M16.1,13.5c0.8,0.5,5,2.8,7.1,3.9c1.4-3.2,1.1-6.8-0.4-9.7L15.9,12C15.9,12,15,12.8,16.1,13.5z"/>
<path fill="#FFD63E" d="M10.2,12c-0.8-0.6-4.9-3.3-6.8-4.6c-1.8,3.1-2,6.8-0.7,9.9l7.6-3.9C10.4,13.5,11.3,12.8,10.2,12z"/>
<path fill="#FFD63E" d="M12.4,9.9c0.1-1,0.3-5.6,0.3-8C9.4,1.9,6.2,3.5,4.1,6.4l7.1,4.4C11.2,10.7,12.3,11.2,12.4,9.9z"/>
<circle fill="#FFD63E" cx="13" cy="13" r="1.6"/>
</svg>
